<svg xmlns="http://www.w3.org/2000/svg" stroke-width="0.3" stroke-dasharray="none" fill="black" stroke="black" font-family="Arial, sans-serif" font-size="10pt" font-weight="normal" font-style="normal" width="200" height="150" viewBox="0 0 200 150"><g class="vf-stave" id="vf-auto1067" stroke-width="1" fill="#999999" stroke="#999999"><path fill="none" d="M40 80L160 80"/><path fill="none" d="M40 90L160 90"/><path fill="none" d="M40 100L160 100"/><path fill="none" d="M40 110L160 110"/><path fill="none" d="M40 120L160 120"/></g><g class="vf-stavebarline" id="vf-auto1068"><rect x="40" y="79.5" width="1" height="41" stroke="none"/></g><g class="vf-stavebarline" id="vf-auto1069"><rect x="160" y="79.5" width="1" height="41" stroke="none"/></g><g class="vf-clef" id="vf-auto1070"><path stroke="none" d="M60.191 93.208C60.135 92.731,60.191 92.703,60.444 92.45C64.824 88.378,68.138 83.24,68.138 77.034C68.138 73.524,67.155 70.042,65.498 67.627C64.881 66.729,63.842 65.606,63.392 65.606C62.831 65.606,61.567 66.644,60.781 67.543C57.776 70.856,56.794 75.911,56.794 80.123C56.794 82.454,57.102 85.093,57.383 86.75C57.468 87.227,57.496 87.311,57.018 87.733C51.178 92.534,45 98.319,45 106.49C45 113.51,49.802 120.193,59.714 120.193C60.641 120.193,61.708 120.109,62.522 119.94C62.943 119.856,63.027 119.828,63.112 120.305C63.589 123.029,64.207 126.539,64.207 128.449C64.207 134.43,60.163 135.16,57.776 135.16C55.586 135.16,54.547 134.514,54.547 133.98C54.547 133.7,54.912 133.587,55.839 133.278C57.102 132.913,58.535 131.846,58.535 129.488C58.535 127.269,57.131 125.36,54.66 125.36C51.964 125.36,50.335 127.522,50.335 130.021C50.335 132.632,51.908 136.62,58.029 136.62C60.725 136.62,65.976 135.384,65.976 128.533C65.976 126.202,65.246 122.383,64.824 119.856C64.74 119.379,64.768 119.435,65.33 119.182C69.43 117.554,72.125 114.128,72.125 109.551C72.125 104.384,68.334 99.807,62.382 99.807C61.343 99.807,61.343 99.807,61.202 99.077M64.01 71.867C65.33 71.867,66.425 72.962,66.425 75.181C66.425 79.674,62.578 83.324,59.405 86.104C59.124 86.357,58.956 86.3,58.872 85.767C58.703 84.728,58.619 83.352,58.619 82.06C58.619 75.742,61.539 71.867,64.01 71.867M59.602 99.414C59.714 100.172,59.714 100.144,58.984 100.369C55.446 101.576,53.115 104.777,53.115 108.231C53.115 111.853,55.025 114.437,57.776 115.391C58.113 115.504,58.591 115.616,58.872 115.616C59.18 115.616,59.349 115.419,59.349 115.167C59.349 114.886,59.04 114.774,58.759 114.661C57.046 113.931,55.839 112.19,55.839 110.337C55.839 108.006,57.411 106.293,59.882 105.591C60.528 105.423,60.612 105.479,60.697 105.928L62.718 117.975C62.803 118.424,62.747 118.424,62.157 118.536C61.511 118.649,60.697 118.733,59.882 118.733C52.806 118.733,48.229 114.802,48.229 109.186C48.229 106.799,48.65 103.598,51.992 99.807C54.435 97.111,56.288 95.595,58.17 94.079C58.591 93.742,58.675 93.798,58.759 94.219M62.382 105.844C62.297 105.339,62.353 105.226,62.831 105.283C66.116 105.563,68.812 108.315,68.812 111.853C68.812 114.409,67.267 116.458,65.021 117.61C64.544 117.834,64.459 117.834,64.375 117.357"/></g><g class="vf-stavenote" id="vf-auto1071"><g class="vf-notehead" id="vf-auto1078" pointer-events="bounding-box"><path stroke="none" d="M92.858 89.946C87.495 89.946,84.125 92.164,84.125 94.916C84.125 97.64,86.428 100.054,92.465 100.054C99.092 100.054,101.198 97.752,101.198 94.916C101.198 92.052,96.621 89.946,92.858 89.946M88.618 92.445C89.067 91.041,90.556 90.844,91.819 90.844C94.599 90.844,96.817 93.821,96.817 96.264C96.817 97.499,96.284 98.65,94.964 98.959C94.571 99.072,94.122 99.128,93.701 99.128C92.24 99.128,90.752 98.145,89.91 97.022C89.095 96.095,88.506 94.719,88.506 93.428C88.506 93.091,88.534 92.782,88.618 92.445"/></g><g class="vf-notehead" id="vf-auto1077" pointer-events="bounding-box"><path stroke="none" d="M92.858 104.946C87.495 104.946,84.125 107.164,84.125 109.916C84.125 112.64,86.428 115.054,92.465 115.054C99.092 115.054,101.198 112.752,101.198 109.916C101.198 107.052,96.621 104.946,92.858 104.946M88.618 107.445C89.067 106.041,90.556 105.844,91.819 105.844C94.599 105.844,96.817 108.821,96.817 111.264C96.817 112.499,96.284 113.65,94.964 113.959C94.571 114.072,94.122 114.128,93.701 114.128C92.24 114.128,90.752 113.145,89.91 112.022C89.095 111.095,88.506 109.719,88.506 108.428C88.506 108.091,88.534 107.782,88.618 107.445"/></g><g class="vf-notehead" id="vf-auto1076" pointer-events="bounding-box"><path stroke="none" d="M92.858 114.946C87.495 114.946,84.125 117.164,84.125 119.916C84.125 122.64,86.428 125.054,92.465 125.054C99.092 125.054,101.198 122.752,101.198 119.916C101.198 117.052,96.621 114.946,92.858 114.946M88.618 117.445C89.067 116.041,90.556 115.844,91.819 115.844C94.599 115.844,96.817 118.821,96.817 121.264C96.817 122.499,96.284 123.65,94.964 123.959C94.571 124.072,94.122 124.128,93.701 124.128C92.24 124.128,90.752 123.145,89.91 122.022C89.095 121.095,88.506 119.719,88.506 118.428C88.506 118.091,88.534 117.782,88.618 117.445"/></g></g></svg>