<svg xmlns="http://www.w3.org/2000/svg" stroke-width="0.3" stroke-dasharray="none" fill="black" stroke="black" font-family="Arial, sans-serif" font-size="10pt" font-weight="normal" font-style="normal" width="200" height="150" viewBox="0 0 200 150"><g class="vf-stave" id="vf-auto1238" stroke-width="1" fill="#999999" stroke="#999999"><path fill="none" d="M40 80L160 80"/><path fill="none" d="M40 90L160 90"/><path fill="none" d="M40 100L160 100"/><path fill="none" d="M40 110L160 110"/><path fill="none" d="M40 120L160 120"/></g><g class="vf-stavebarline" id="vf-auto1239"><rect x="40" y="79.5" width="1" height="41" stroke="none"/></g><g class="vf-stavebarline" id="vf-auto1240"><rect x="160" y="79.5" width="1" height="41" stroke="none"/></g><g class="vf-clef" id="vf-auto1241"><path stroke="none" d="M60.191 93.208C60.135 92.731,60.191 92.703,60.444 92.45C64.824 88.378,68.138 83.24,68.138 77.034C68.138 73.524,67.155 70.042,65.498 67.627C64.881 66.729,63.842 65.606,63.392 65.606C62.831 65.606,61.567 66.644,60.781 67.543C57.776 70.856,56.794 75.911,56.794 80.123C56.794 82.454,57.102 85.093,57.383 86.75C57.468 87.227,57.496 87.311,57.018 87.733C51.178 92.534,45 98.319,45 106.49C45 113.51,49.802 120.193,59.714 120.193C60.641 120.193,61.708 120.109,62.522 119.94C62.943 119.856,63.027 119.828,63.112 120.305C63.589 123.029,64.207 126.539,64.207 128.449C64.207 134.43,60.163 135.16,57.776 135.16C55.586 135.16,54.547 134.514,54.547 133.98C54.547 133.7,54.912 133.587,55.839 133.278C57.102 132.913,58.535 131.846,58.535 129.488C58.535 127.269,57.131 125.36,54.66 125.36C51.964 125.36,50.335 127.522,50.335 130.021C50.335 132.632,51.908 136.62,58.029 136.62C60.725 136.62,65.976 135.384,65.976 128.533C65.976 126.202,65.246 122.383,64.824 119.856C64.74 119.379,64.768 119.435,65.33 119.182C69.43 117.554,72.125 114.128,72.125 109.551C72.125 104.384,68.334 99.807,62.382 99.807C61.343 99.807,61.343 99.807,61.202 99.077M64.01 71.867C65.33 71.867,66.425 72.962,66.425 75.181C66.425 79.674,62.578 83.324,59.405 86.104C59.124 86.357,58.956 86.3,58.872 85.767C58.703 84.728,58.619 83.352,58.619 82.06C58.619 75.742,61.539 71.867,64.01 71.867M59.602 99.414C59.714 100.172,59.714 100.144,58.984 100.369C55.446 101.576,53.115 104.777,53.115 108.231C53.115 111.853,55.025 114.437,57.776 115.391C58.113 115.504,58.591 115.616,58.872 115.616C59.18 115.616,59.349 115.419,59.349 115.167C59.349 114.886,59.04 114.774,58.759 114.661C57.046 113.931,55.839 112.19,55.839 110.337C55.839 108.006,57.411 106.293,59.882 105.591C60.528 105.423,60.612 105.479,60.697 105.928L62.718 117.975C62.803 118.424,62.747 118.424,62.157 118.536C61.511 118.649,60.697 118.733,59.882 118.733C52.806 118.733,48.229 114.802,48.229 109.186C48.229 106.799,48.65 103.598,51.992 99.807C54.435 97.111,56.288 95.595,58.17 94.079C58.591 93.742,58.675 93.798,58.759 94.219M62.382 105.844C62.297 105.339,62.353 105.226,62.831 105.283C66.116 105.563,68.812 108.315,68.812 111.853C68.812 114.409,67.267 116.458,65.021 117.61C64.544 117.834,64.459 117.834,64.375 117.357"/></g><g class="vf-stavenote" id="vf-auto1242"><path stroke-width="1.4" fill="none" stroke="#444" d="M108.377 130L131.45 130"/><g class="vf-notehead" id="vf-auto1249" pointer-events="bounding-box"><path stroke="none" d="M120.11 124.946C114.747 124.946,111.377 127.164,111.377 129.916C111.377 132.64,113.68 135.054,119.717 135.054C126.344 135.054,128.45 132.752,128.45 129.916C128.45 127.052,123.873 124.946,120.11 124.946M115.87 127.445C116.319 126.041,117.808 125.844,119.071 125.844C121.851 125.844,124.069 128.821,124.069 131.264C124.069 132.499,123.536 133.65,122.216 133.959C121.823 134.072,121.374 134.128,120.953 134.128C119.492 134.128,118.004 133.145,117.162 132.022C116.347 131.095,115.758 129.719,115.758 128.428C115.758 128.091,115.786 127.782,115.87 127.445"/></g><g class="vf-notehead" id="vf-auto1250" pointer-events="bounding-box"><path stroke="none" d="M120.11 104.946C114.747 104.946,111.377 107.164,111.377 109.916C111.377 112.64,113.68 115.054,119.717 115.054C126.344 115.054,128.45 112.752,128.45 109.916C128.45 107.052,123.873 104.946,120.11 104.946M115.87 107.445C116.319 106.041,117.808 105.844,119.071 105.844C121.851 105.844,124.069 108.821,124.069 111.264C124.069 112.499,123.536 113.65,122.216 113.959C121.823 114.072,121.374 114.128,120.953 114.128C119.492 114.128,118.004 113.145,117.162 112.022C116.347 111.095,115.758 109.719,115.758 108.428C115.758 108.091,115.786 107.782,115.87 107.445"/></g><g class="vf-notehead" id="vf-auto1251" pointer-events="bounding-box"><path stroke="none" d="M120.11 94.946C114.747 94.946,111.377 97.164,111.377 99.916C111.377 102.64,113.68 105.054,119.717 105.054C126.344 105.054,128.45 102.752,128.45 99.916C128.45 97.052,123.873 94.946,120.11 94.946M115.87 97.445C116.319 96.041,117.808 95.844,119.071 95.844C121.851 95.844,124.069 98.821,124.069 101.264C124.069 102.499,123.536 103.65,122.216 103.959C121.823 104.072,121.374 104.128,120.953 104.128C119.492 104.128,118.004 103.145,117.162 102.022C116.347 101.095,115.758 99.719,115.758 98.428C115.758 98.091,115.786 97.782,115.87 97.445"/><path stroke="none" d="M87.603 106.88C87.743 107.048,87.855 107.076,87.968 107.076C88.108 107.076,88.22 106.992,88.22 106.992C89.428 106.318,90.411 105.223,91.422 104.521C95.016 102.022,96.251 99.551,96.251 97.697C96.251 95.395,94.482 93.935,92.629 93.822C91.927 93.822,90.972 94.131,90.411 94.496C90.158 94.693,89.709 95.058,89.512 95.058C89.428 95.058,89.4 95.058,89.316 95.03C89.035 94.918,88.866 94.609,88.866 94.328C88.894 93.457,89.147 83.742,89.147 82.927C89.147 82.478,88.782 82.253,88.389 82.253C87.799 82.253,87.153 82.647,87.125 83.377C87.125 83.377,87.294 106.458,87.603 106.88M89.035 103.285C89.035 103.285,88.894 100.842,88.894 99.242C88.894 98.596,88.95 98.091,88.979 97.95C89.259 97.136,90.888 95.956,91.815 95.956C92.994 95.956,93.471 97.304,93.471 98.315C93.471 100.477,91.618 102.668,89.877 103.763C89.709 103.847,89.596 103.875,89.484 103.875C89.119 103.875,89.035 103.482,89.035 103.285"/></g><g class="vf-notehead" id="vf-auto1252" pointer-events="bounding-box"><path stroke="none" d="M120.11 79.946C114.747 79.946,111.377 82.164,111.377 84.916C111.377 87.64,113.68 90.054,119.717 90.054C126.344 90.054,128.45 87.752,128.45 84.916C128.45 82.052,123.873 79.946,120.11 79.946M115.87 82.445C116.319 81.041,117.808 80.844,119.071 80.844C121.851 80.844,124.069 83.821,124.069 86.264C124.069 87.499,123.536 88.65,122.216 88.959C121.823 89.072,121.374 89.128,120.953 89.128C119.492 89.128,118.004 88.145,117.162 87.022C116.347 86.095,115.758 84.719,115.758 83.428C115.758 83.091,115.786 82.782,115.87 82.445"/><path stroke="none" d="M99.729 91.88C99.869 92.048,99.981 92.076,100.094 92.076C100.234 92.076,100.346 91.992,100.346 91.992C101.554 91.318,102.537 90.223,103.548 89.521C107.142 87.022,108.377 84.551,108.377 82.697C108.377 80.395,106.608 78.935,104.755 78.822C104.053 78.822,103.098 79.131,102.537 79.496C102.284 79.693,101.835 80.058,101.638 80.058C101.554 80.058,101.526 80.058,101.442 80.03C101.161 79.918,100.992 79.609,100.992 79.328C101.02 78.457,101.273 68.742,101.273 67.927C101.273 67.478,100.908 67.253,100.515 67.253C99.925 67.253,99.279 67.647,99.251 68.377C99.251 68.377,99.42 91.458,99.729 91.88M101.161 88.285C101.161 88.285,101.02 85.842,101.02 84.242C101.02 83.596,101.076 83.091,101.105 82.95C101.385 82.136,103.014 80.956,103.941 80.956C105.12 80.956,105.597 82.304,105.597 83.315C105.597 85.477,103.744 87.668,102.003 88.763C101.835 88.847,101.722 88.875,101.61 88.875C101.245 88.875,101.161 88.482,101.161 88.285"/></g><g class="vf-notehead" id="vf-auto1253" pointer-events="bounding-box"><path stroke="none" d="M120.11 69.946C114.747 69.946,111.377 72.164,111.377 74.916C111.377 77.64,113.68 80.054,119.717 80.054C126.344 80.054,128.45 77.752,128.45 74.916C128.45 72.052,123.873 69.946,120.11 69.946M115.87 72.445C116.319 71.041,117.808 70.844,119.071 70.844C121.851 70.844,124.069 73.821,124.069 76.264C124.069 77.499,123.536 78.65,122.216 78.959C121.823 79.072,121.374 79.128,120.953 79.128C119.492 79.128,118.004 78.145,117.162 77.022C116.347 76.095,115.758 74.719,115.758 73.428C115.758 73.091,115.786 72.782,115.87 72.445"/></g></g></svg>