<svg xmlns="http://www.w3.org/2000/svg" stroke-width="0.3" stroke-dasharray="none" fill="black" stroke="black" font-family="Arial, sans-serif" font-size="10pt" font-weight="normal" font-style="normal" width="200" height="150" viewBox="0 0 200 150"><g class="vf-stave" id="vf-auto1221" stroke-width="1" fill="#999999" stroke="#999999"><path fill="none" d="M40 80L160 80"/><path fill="none" d="M40 90L160 90"/><path fill="none" d="M40 100L160 100"/><path fill="none" d="M40 110L160 110"/><path fill="none" d="M40 120L160 120"/></g><g class="vf-stavebarline" id="vf-auto1222"><rect x="40" y="79.5" width="1" height="41" stroke="none"/></g><g class="vf-stavebarline" id="vf-auto1223"><rect x="160" y="79.5" width="1" height="41" stroke="none"/></g><g class="vf-clef" id="vf-auto1224"><path stroke="none" d="M60.191 93.208C60.135 92.731,60.191 92.703,60.444 92.45C64.824 88.378,68.138 83.24,68.138 77.034C68.138 73.524,67.155 70.042,65.498 67.627C64.881 66.729,63.842 65.606,63.392 65.606C62.831 65.606,61.567 66.644,60.781 67.543C57.776 70.856,56.794 75.911,56.794 80.123C56.794 82.454,57.102 85.093,57.383 86.75C57.468 87.227,57.496 87.311,57.018 87.733C51.178 92.534,45 98.319,45 106.49C45 113.51,49.802 120.193,59.714 120.193C60.641 120.193,61.708 120.109,62.522 119.94C62.943 119.856,63.027 119.828,63.112 120.305C63.589 123.029,64.207 126.539,64.207 128.449C64.207 134.43,60.163 135.16,57.776 135.16C55.586 135.16,54.547 134.514,54.547 133.98C54.547 133.7,54.912 133.587,55.839 133.278C57.102 132.913,58.535 131.846,58.535 129.488C58.535 127.269,57.131 125.36,54.66 125.36C51.964 125.36,50.335 127.522,50.335 130.021C50.335 132.632,51.908 136.62,58.029 136.62C60.725 136.62,65.976 135.384,65.976 128.533C65.976 126.202,65.246 122.383,64.824 119.856C64.74 119.379,64.768 119.435,65.33 119.182C69.43 117.554,72.125 114.128,72.125 109.551C72.125 104.384,68.334 99.807,62.382 99.807C61.343 99.807,61.343 99.807,61.202 99.077M64.01 71.867C65.33 71.867,66.425 72.962,66.425 75.181C66.425 79.674,62.578 83.324,59.405 86.104C59.124 86.357,58.956 86.3,58.872 85.767C58.703 84.728,58.619 83.352,58.619 82.06C58.619 75.742,61.539 71.867,64.01 71.867M59.602 99.414C59.714 100.172,59.714 100.144,58.984 100.369C55.446 101.576,53.115 104.777,53.115 108.231C53.115 111.853,55.025 114.437,57.776 115.391C58.113 115.504,58.591 115.616,58.872 115.616C59.18 115.616,59.349 115.419,59.349 115.167C59.349 114.886,59.04 114.774,58.759 114.661C57.046 113.931,55.839 112.19,55.839 110.337C55.839 108.006,57.411 106.293,59.882 105.591C60.528 105.423,60.612 105.479,60.697 105.928L62.718 117.975C62.803 118.424,62.747 118.424,62.157 118.536C61.511 118.649,60.697 118.733,59.882 118.733C52.806 118.733,48.229 114.802,48.229 109.186C48.229 106.799,48.65 103.598,51.992 99.807C54.435 97.111,56.288 95.595,58.17 94.079C58.591 93.742,58.675 93.798,58.759 94.219M62.382 105.844C62.297 105.339,62.353 105.226,62.831 105.283C66.116 105.563,68.812 108.315,68.812 111.853C68.812 114.409,67.267 116.458,65.021 117.61C64.544 117.834,64.459 117.834,64.375 117.357"/></g><g class="vf-stavenote" id="vf-auto1225"><path stroke-width="1.4" fill="none" stroke="#444" d="M108.377 70L131.45 70"/><g class="vf-notehead" id="vf-auto1230" pointer-events="bounding-box"><path stroke="none" d="M120.11 79.946C114.747 79.946,111.377 82.164,111.377 84.916C111.377 87.64,113.68 90.054,119.717 90.054C126.344 90.054,128.45 87.752,128.45 84.916C128.45 82.052,123.873 79.946,120.11 79.946M115.87 82.445C116.319 81.041,117.808 80.844,119.071 80.844C121.851 80.844,124.069 83.821,124.069 86.264C124.069 87.499,123.536 88.65,122.216 88.959C121.823 89.072,121.374 89.128,120.953 89.128C119.492 89.128,118.004 88.145,117.162 87.022C116.347 86.095,115.758 84.719,115.758 83.428C115.758 83.091,115.786 82.782,115.87 82.445"/><path stroke="none" d="M87.603 91.88C87.743 92.048,87.855 92.076,87.968 92.076C88.108 92.076,88.22 91.992,88.22 91.992C89.428 91.318,90.411 90.223,91.422 89.521C95.016 87.022,96.251 84.551,96.251 82.697C96.251 80.395,94.482 78.935,92.629 78.822C91.927 78.822,90.972 79.131,90.411 79.496C90.158 79.693,89.709 80.058,89.512 80.058C89.428 80.058,89.4 80.058,89.316 80.03C89.035 79.918,88.866 79.609,88.866 79.328C88.894 78.457,89.147 68.742,89.147 67.927C89.147 67.478,88.782 67.253,88.389 67.253C87.799 67.253,87.153 67.647,87.125 68.377C87.125 68.377,87.294 91.458,87.603 91.88M89.035 88.285C89.035 88.285,88.894 85.842,88.894 84.242C88.894 83.596,88.95 83.091,88.979 82.95C89.259 82.136,90.888 80.956,91.815 80.956C92.994 80.956,93.471 82.304,93.471 83.315C93.471 85.477,91.618 87.668,89.877 88.763C89.709 88.847,89.596 88.875,89.484 88.875C89.119 88.875,89.035 88.482,89.035 88.285"/></g><g class="vf-notehead" id="vf-auto1231" pointer-events="bounding-box"><path stroke="none" d="M120.11 69.946C114.747 69.946,111.377 72.164,111.377 74.916C111.377 77.64,113.68 80.054,119.717 80.054C126.344 80.054,128.45 77.752,128.45 74.916C128.45 72.052,123.873 69.946,120.11 69.946M115.87 72.445C116.319 71.041,117.808 70.844,119.071 70.844C121.851 70.844,124.069 73.821,124.069 76.264C124.069 77.499,123.536 78.65,122.216 78.959C121.823 79.072,121.374 79.128,120.953 79.128C119.492 79.128,118.004 78.145,117.162 77.022C116.347 76.095,115.758 74.719,115.758 73.428C115.758 73.091,115.786 72.782,115.87 72.445"/></g><g class="vf-notehead" id="vf-auto1232" pointer-events="bounding-box"><path stroke="none" d="M120.11 59.946C114.747 59.946,111.377 62.164,111.377 64.916C111.377 67.64,113.68 70.054,119.717 70.054C126.344 70.054,128.45 67.752,128.45 64.916C128.45 62.052,123.873 59.946,120.11 59.946M115.87 62.445C116.319 61.041,117.808 60.844,119.071 60.844C121.851 60.844,124.069 63.821,124.069 66.264C124.069 67.499,123.536 68.65,122.216 68.959C121.823 69.072,121.374 69.128,120.953 69.128C119.492 69.128,118.004 68.145,117.162 67.022C116.347 66.095,115.758 64.719,115.758 63.428C115.758 63.091,115.786 62.782,115.87 62.445"/><path stroke="none" d="M99.729 71.88C99.869 72.048,99.981 72.076,100.094 72.076C100.234 72.076,100.346 71.992,100.346 71.992C101.554 71.318,102.537 70.223,103.548 69.521C107.142 67.022,108.377 64.551,108.377 62.697C108.377 60.395,106.608 58.935,104.755 58.822C104.053 58.822,103.098 59.131,102.537 59.496C102.284 59.693,101.835 60.058,101.638 60.058C101.554 60.058,101.526 60.058,101.442 60.03C101.161 59.918,100.992 59.609,100.992 59.328C101.02 58.457,101.273 48.742,101.273 47.927C101.273 47.478,100.908 47.253,100.515 47.253C99.925 47.253,99.279 47.647,99.251 48.377C99.251 48.377,99.42 71.458,99.729 71.88M101.161 68.285C101.161 68.285,101.02 65.842,101.02 64.242C101.02 63.596,101.076 63.091,101.105 62.95C101.385 62.136,103.014 60.956,103.941 60.956C105.12 60.956,105.597 62.304,105.597 63.315C105.597 65.477,103.744 67.668,102.003 68.763C101.835 68.847,101.722 68.875,101.61 68.875C101.245 68.875,101.161 68.482,101.161 68.285"/></g></g></svg>