<svg xmlns="http://www.w3.org/2000/svg" stroke-width="0.3" stroke-dasharray="none" fill="black" stroke="black" font-family="Arial, sans-serif" font-size="10pt" font-weight="normal" font-style="normal" width="200" height="150" viewBox="0 0 200 150"><g class="vf-stave" id="vf-auto1148" stroke-width="1" fill="#999999" stroke="#999999"><path fill="none" d="M40 80L160 80"/><path fill="none" d="M40 90L160 90"/><path fill="none" d="M40 100L160 100"/><path fill="none" d="M40 110L160 110"/><path fill="none" d="M40 120L160 120"/></g><g class="vf-stavebarline" id="vf-auto1149"><rect x="40" y="79.5" width="1" height="41" stroke="none"/></g><g class="vf-stavebarline" id="vf-auto1150"><rect x="160" y="79.5" width="1" height="41" stroke="none"/></g><g class="vf-clef" id="vf-auto1151"><path stroke="none" d="M60.191 93.208C60.135 92.731,60.191 92.703,60.444 92.45C64.824 88.378,68.138 83.24,68.138 77.034C68.138 73.524,67.155 70.042,65.498 67.627C64.881 66.729,63.842 65.606,63.392 65.606C62.831 65.606,61.567 66.644,60.781 67.543C57.776 70.856,56.794 75.911,56.794 80.123C56.794 82.454,57.102 85.093,57.383 86.75C57.468 87.227,57.496 87.311,57.018 87.733C51.178 92.534,45 98.319,45 106.49C45 113.51,49.802 120.193,59.714 120.193C60.641 120.193,61.708 120.109,62.522 119.94C62.943 119.856,63.027 119.828,63.112 120.305C63.589 123.029,64.207 126.539,64.207 128.449C64.207 134.43,60.163 135.16,57.776 135.16C55.586 135.16,54.547 134.514,54.547 133.98C54.547 133.7,54.912 133.587,55.839 133.278C57.102 132.913,58.535 131.846,58.535 129.488C58.535 127.269,57.131 125.36,54.66 125.36C51.964 125.36,50.335 127.522,50.335 130.021C50.335 132.632,51.908 136.62,58.029 136.62C60.725 136.62,65.976 135.384,65.976 128.533C65.976 126.202,65.246 122.383,64.824 119.856C64.74 119.379,64.768 119.435,65.33 119.182C69.43 117.554,72.125 114.128,72.125 109.551C72.125 104.384,68.334 99.807,62.382 99.807C61.343 99.807,61.343 99.807,61.202 99.077M64.01 71.867C65.33 71.867,66.425 72.962,66.425 75.181C66.425 79.674,62.578 83.324,59.405 86.104C59.124 86.357,58.956 86.3,58.872 85.767C58.703 84.728,58.619 83.352,58.619 82.06C58.619 75.742,61.539 71.867,64.01 71.867M59.602 99.414C59.714 100.172,59.714 100.144,58.984 100.369C55.446 101.576,53.115 104.777,53.115 108.231C53.115 111.853,55.025 114.437,57.776 115.391C58.113 115.504,58.591 115.616,58.872 115.616C59.18 115.616,59.349 115.419,59.349 115.167C59.349 114.886,59.04 114.774,58.759 114.661C57.046 113.931,55.839 112.19,55.839 110.337C55.839 108.006,57.411 106.293,59.882 105.591C60.528 105.423,60.612 105.479,60.697 105.928L62.718 117.975C62.803 118.424,62.747 118.424,62.157 118.536C61.511 118.649,60.697 118.733,59.882 118.733C52.806 118.733,48.229 114.802,48.229 109.186C48.229 106.799,48.65 103.598,51.992 99.807C54.435 97.111,56.288 95.595,58.17 94.079C58.591 93.742,58.675 93.798,58.759 94.219M62.382 105.844C62.297 105.339,62.353 105.226,62.831 105.283C66.116 105.563,68.812 108.315,68.812 111.853C68.812 114.409,67.267 116.458,65.021 117.61C64.544 117.834,64.459 117.834,64.375 117.357"/></g><g class="vf-stavenote" id="vf-auto1152"><g class="vf-notehead" id="vf-auto1157" pointer-events="bounding-box"><path stroke="none" d="M107.984 89.946C102.621 89.946,99.251 92.164,99.251 94.916C99.251 97.64,101.554 100.054,107.591 100.054C114.218 100.054,116.324 97.752,116.324 94.916C116.324 92.052,111.747 89.946,107.984 89.946M103.744 92.445C104.193 91.041,105.682 90.844,106.945 90.844C109.725 90.844,111.943 93.821,111.943 96.264C111.943 97.499,111.41 98.65,110.09 98.959C109.697 99.072,109.248 99.128,108.827 99.128C107.366 99.128,105.878 98.145,105.036 97.022C104.221 96.095,103.632 94.719,103.632 93.428C103.632 93.091,103.66 92.782,103.744 92.445"/></g><g class="vf-notehead" id="vf-auto1158" pointer-events="bounding-box"><path stroke="none" d="M107.984 79.946C102.621 79.946,99.251 82.164,99.251 84.916C99.251 87.64,101.554 90.054,107.591 90.054C114.218 90.054,116.324 87.752,116.324 84.916C116.324 82.052,111.747 79.946,107.984 79.946M103.744 82.445C104.193 81.041,105.682 80.844,106.945 80.844C109.725 80.844,111.943 83.821,111.943 86.264C111.943 87.499,111.41 88.65,110.09 88.959C109.697 89.072,109.248 89.128,108.827 89.128C107.366 89.128,105.878 88.145,105.036 87.022C104.221 86.095,103.632 84.719,103.632 83.428C103.632 83.091,103.66 82.782,103.744 82.445"/><path stroke="none" d="M87.603 91.88C87.743 92.048,87.855 92.076,87.968 92.076C88.108 92.076,88.22 91.992,88.22 91.992C89.428 91.318,90.411 90.223,91.422 89.521C95.016 87.022,96.251 84.551,96.251 82.697C96.251 80.395,94.482 78.935,92.629 78.822C91.927 78.822,90.972 79.131,90.411 79.496C90.158 79.693,89.709 80.058,89.512 80.058C89.428 80.058,89.4 80.058,89.316 80.03C89.035 79.918,88.866 79.609,88.866 79.328C88.894 78.457,89.147 68.742,89.147 67.927C89.147 67.478,88.782 67.253,88.389 67.253C87.799 67.253,87.153 67.647,87.125 68.377C87.125 68.377,87.294 91.458,87.603 91.88M89.035 88.285C89.035 88.285,88.894 85.842,88.894 84.242C88.894 83.596,88.95 83.091,88.979 82.95C89.259 82.136,90.888 80.956,91.815 80.956C92.994 80.956,93.471 82.304,93.471 83.315C93.471 85.477,91.618 87.668,89.877 88.763C89.709 88.847,89.596 88.875,89.484 88.875C89.119 88.875,89.035 88.482,89.035 88.285"/></g><g class="vf-notehead" id="vf-auto1159" pointer-events="bounding-box"><path stroke="none" d="M107.984 69.946C102.621 69.946,99.251 72.164,99.251 74.916C99.251 77.64,101.554 80.054,107.591 80.054C114.218 80.054,116.324 77.752,116.324 74.916C116.324 72.052,111.747 69.946,107.984 69.946M103.744 72.445C104.193 71.041,105.682 70.844,106.945 70.844C109.725 70.844,111.943 73.821,111.943 76.264C111.943 77.499,111.41 78.65,110.09 78.959C109.697 79.072,109.248 79.128,108.827 79.128C107.366 79.128,105.878 78.145,105.036 77.022C104.221 76.095,103.632 74.719,103.632 73.428C103.632 73.091,103.66 72.782,103.744 72.445"/></g></g></svg>